PathFileType	4	(X/Y/Z)	C:/Users/beibeiliu/ov580/test_trc/User3\out1_training_dense_left.trc
DataRate	CameraRate	NumFrames	NumMarkers	Units	OrigDataRate	OrigDataStartFrame	OrigNumFrames
120	120	14	19	mm	120	63	500
Frame#	Time	ThumbCMC			ThumbMCP			ThumbIP			ThumbTip			IndexMCP			IndexPIP			IndexTip			MiddleMCP			MiddlePIP			MiddleTip			RingMCP			RingPIP			RingTip			PinkyMCP			PinkyPIP			PinkyTip			BackHand1			BackHand2			BackHand3	
		X0	Y0	Z0	X1	Y1	Z1	X2	Y2	Z2	X3	Y3	Z3	X4	Y4	Z4	X5	Y5	Z5	X6	Y6	Z6	X7	Y7	Z7	X8	Y8	Z8	X9	Y9	Z9	X10	Y10	Z10	X11	Y11	Z11	X12	Y12	Z12	X13	Y13	Z13	X14	Y14	Z14	X15	Y15	Z15	X16	Y16	Z16	X17	Y17	Z17	X18	Y18	Z18	
62	0.516667	-114.572	57.1484	23.437	-89.8878	41.7207	8.03953	-70.6384	29.7081	-2.81064	-53.7294	14.7256	-17.2615	-125.353	25.3242	-52.2116	-113.459	12.3338	-71.9875	-101.451	-10.059	-87.9238	-150.285	16.1611	-54.5973	-142.779	-2.93713	-80.1812	-136.269	-28.5319	-96.5369	-166.819	1.60136	-41.806	-160.134	-16.1053	-60.8407	-149.357	-45.9852	-68.5449	-179.531	-9.03158	-19.6066	-174.126	-33.0295	-30.0666	-159.911	-56.206	-31.4263	-176.079	40.0099	-0.481266	-178.925	52.3437	22.9604	-149.62	60.2232	4.19961	
63	0.525	-120.265	67.7771	20.9089	-93.282	56.9463	9.0044	-71.0848	45.6788	-3.49888	-53.2181	31.2611	-14.5092	-123.968	32.276	-50.2467	-108.016	17.6519	-71.7574	-90.9114	0.478338	-84.3354	-147.452	14.7334	-53.3767	-136.788	-1.58366	-74.0344	-118.231	-27.0858	-89.3527	-157.113	0.914257	-35.0366	-143.611	-22.2493	-52.0372	-127.42	-46.4429	-52.0544	-165.603	-10.329	-13.4385	-153.739	-35.4505	-17.385	-130.496	-50.0659	-16.5932	-174.777	37.901	-1.0835	-187.331	50.3112	24.5875	-155.185	64.9147	0.0924162	
64	0.533333	-128.282	76.1063	17.9483	-98.2247	70.4832	11.709	-69.4954	60.4531	-4.48864	-54.7512	46.3201	-10.21	-123.949	39.4479	-51.913	-104.781	28.7088	-72.3397	-86.1718	18.7507	-82.1674	-141.881	20.5648	-52.2042	-126.862	-0.175123	-72.1259	-103.905	-22.0716	-82.6859	-147.934	-1.52282	-32.834	-128.84	-20.2442	-42.7835	-102.134	-35.9522	-37.025	-150.779	-10.0809	-9.17632	-132.209	-29.4874	-8.72722	-110.276	-39.1379	0.100412	-175.948	35.5636	-0.700088	-186.331	48.8712	23.8815	-159.85	67.5972	1.09079	
65	0.541667	-135.043	80.9151	18.8614	-102.001	75.1773	8.2618	-77.9469	70.2027	1.93007	-57.5581	57.7313	-7.73296	-128.04	47.6169	-47.1072	-106.945	37.393	-70.3932	-84.1986	28.5933	-84.2384	-137.802	21.6214	-49.663	-119.6	2.32323	-67.1288	-94.223	-13.3694	-74.8107	-134.155	2.99568	-29.5941	-109.036	-13.8403	-33.4981	-83.2078	-20.2959	-19.6839	-135.447	-9.22232	-5.2134	-113.814	-20.4092	1.5816	-88.4163	-14.2477	7.79163	-174.342	31.6368	3.68671	-189.151	39.8153	23.4407	-169.019	63.9816	2.61057	
66	0.55	-142.83	84.1483	19.705	-110.772	84.873	11.3926	-83.0231	78.196	0.51382	-61.0225	67.472	-6.63001	-132.2	51.6911	-45.5967	-112.343	47.0866	-69.5677	-88.349	42.7248	-84.0386	-135.956	19.9021	-46.6111	-115.974	11.8563	-64.8699	-79.4524	-1.03265	-68.444	-125.411	5.21489	-24.5692	-96.9433	-5.05988	-25.1064	-73.1215	2.34514	-9.83894	-128.294	-4.56786	0.562768	-100.948	-3.90837	5.03891	-82.4132	7.83799	22.6017	-173.432	26.8947	5.35946	-186.406	32.8672	27.7393	-174.708	60.4442	4.28339	
67	0.558333	-152.829	86.4354	19.9837	-120.668	90.9513	12.341	-90.7816	89.24	-0.466204	-70.53	72.4276	-5.99245	-137.103	51.7262	-44.4818	-119.718	53.8879	-68.3567	-97.6263	54.6202	-85.0432	-133.867	22.7511	-42.1704	-107.939	15.6402	-61.0885	-73.6117	14.9977	-58.9499	-119.982	11.7537	-21.3277	-87.3157	12.6223	-18.6186	-71.0338	27.8144	1.75845	-115.159	3.66781	2.16456	-91.537	13.1037	11.7509	-86.0852	34.6826	30.0782	-171.446	21.3424	7.34123	-183.904	28.2029	29.8703	-178.128	55.6697	6.44398	
68	0.566667	-163.259	84.8833	23.0375	-132.396	96.9338	11.9074	-106.515	95.9493	0.557169	-80.4597	85.6623	-6.09002	-142.102	53.0038	-45.5978	-124.744	55.0836	-71.7906	-104.307	56.557	-84.9207	-131.481	24.5574	-40.5916	-103.87	23.7215	-55.3691	-70.7126	38.3834	-46.9873	-117.405	19.533	-18.986	-85.6597	27.0845	-14.8432	-76.8684	43.2338	10.2732	-109.81	9.86773	5.27934	-90.1527	28.7422	14.2233	-95.5219	48.4901	33.1239	-165.051	17.3631	8.09607	-182.552	18.3597	34.2812	-179.344	47.7745	9.54868	
69	0.575	-172.893	75.1376	25.402	-146.682	94.0631	7.97416	-121.412	101.488	-5.86678	-96.1999	96.0631	-10.5705	-149.05	50.6453	-45.0294	-131.213	52.437	-70.5549	-110.968	58.3811	-84.7674	-125.007	26.5301	-39.9838	-98.369	34.5112	-50.457	-74.839	60.0808	-29.4298	-110.819	22.6262	-14.9479	-85.2404	37.8267	-10.3707	-89.29	59.5388	14.9621	-103.695	18.2342	6.6915	-91.856	41.4127	17.1583	-104.332	54.5938	38.4059	-161.755	9.76899	14.9174	-177.36	10.929	42.3105	-181.333	38.5629	13.3646	
70	0.583333	-181.467	67.465	24.1715	-160.363	84.7856	7.66657	-137.51	99.0625	-9.8879	-111.936	97.5706	-17.675	-152.325	40.9366	-43.5799	-140.655	45.9916	-67.5762	-113.391	56.6142	-84.3748	-125.77	28.3496	-36.7073	-97.6306	42.4081	-44.7677	-89.4212	71.8718	-20.5093	-108.834	24.2576	-12.7414	-89.6475	51.3717	-5.32272	-105.114	64.6858	22.3216	-99.422	23.2352	8.97256	-92.2818	45.5359	21.6781	-118.123	56.7371	38.1331	-153.03	2.62097	16.5441	-172.375	6.42419	43.0235	-181.144	27.6815	16.2869	
71	0.591667	-185.934	57.3741	22.1014	-174.156	80.4356	7.43644	-152.533	92.4354	-12.1408	-128.588	99.7772	-22.8765	-150.098	32.0717	-40.7331	-137.684	41.9399	-67.7401	-116.631	59.2623	-80.334	-125.87	26.2089	-34.9902	-103.483	50.4414	-42.6883	-103.893	75.9349	-9.43869	-109.173	29.953	-13.8361	-94.5235	52.7535	-6.73016	-115.359	64.3087	23.2045	-102.578	22.802	10.314	-98.0779	51.1788	18.5454	-123.077	57.4789	37.4043	-148.404	-0.410803	17.6226	-165.857	-2.02047	45.0772	-181.916	20.1105	15.5789	
72	0.6	-193.882	48.7679	28.4811	-183.673	71.1136	7.37115	-169.487	88.617	-14.966	-146.083	94.2069	-26.2316	-154.353	27.5242	-40.0907	-141.329	38.3489	-65.1498	-126.221	61.8622	-74.766	-125.553	25.2857	-35.0636	-107.119	52.6264	-37.9224	-114.148	72.5212	-7.28978	-111.702	28.0214	-13.9852	-101.334	57.0969	-7.84201	-122.818	64.7559	18.9085	-106.662	23.9037	5.82465	-98.7007	51.0161	12.773	-120.403	57.2779	36.157	-147.267	-5.99176	22.3874	-164.809	-7.12862	49.884	-180.687	10.5892	21.7459	
73	0.608333	-196.773	37.7419	32.6684	-189.765	58.3331	7.26313	-178.764	77.506	-16.6751	-164.525	90.3618	-28.3136	-160.364	23.769	-36.8506	-148.188	40.1462	-63.6928	-130.106	67.2082	-64.1851	-134.203	22.4939	-34.021	-116.65	48.2556	-41.1007	-124.281	69.3951	-4.91057	-119.173	22.4214	-16.1355	-108.033	53.8926	-13.7575	-124.953	61.4249	14.7457	-106.161	21.5932	1.50311	-98.4005	47.9861	6.41807	-122.199	56.9581	25.1641	-148.15	-7.30013	21.1458	-155.776	-12.6962	50.1639	-179.502	3.29419	23.4653	
74	0.616667	-197.664	27.0877	35.0401	-201.237	49.4959	9.57715	-190.781	66.5683	-16.1008	-181.428	80.5956	-30.1471	-162.954	19.5163	-35.549	-150.895	39.2963	-58.2873	-143.57	70.4332	-53.6361	-138.595	17.2664	-36.1909	-125.062	44.8211	-42.6542	-133.401	67.7638	-12.3049	-125.716	15.1611	-18.012	-110.012	46.6682	-21.6569	-122.342	59.6837	2.01715	-107.932	13.7014	1.48788	-100.935	37.5611	-5.19517	-117.468	57.1429	12.5102	-145.282	-11.9311	27.8138	-159.176	-17.8646	52.5243	-181.834	-4.05202	27.1441	
75	0.625	-204.791	20.0526	37.0203	-207.609	38.9667	12.5017	-206.431	54.6965	-12.2714	-196.363	69.3982	-29.3365	-166.165	15.7095	-33.3783	-156.895	43.3094	-52.539	-157.285	72.1185	-42.0933	-146.294	11.3047	-34.7312	-133.305	39.4809	-46.7745	-139.711	66.6397	-15.8326	-127.454	9.79383	-19.732	-119.109	36.8826	-33.4405	-126.651	61.151	-6.80799	-115.524	10.1846	1.47011	-101.789	31.4482	-11.3904	-116.254	57.7449	-2.77136	-149.292	-13.5175	22.8349	-158.317	-20.2002	55.9688	-181.935	-11.6122	32.7861	
